<svg xmlns="http://www.w3.org/2000/svg" viewBox="0 0 512 512" role="img" aria-label="Hot Tub Hero icon">
  <defs>
    <radialGradient id="bg" cx="50%" cy="30%" r="75%">
      <stop offset="0" stop-color="#263766"/>
      <stop offset="0.58" stop-color="#0b1020"/>
      <stop offset="1" stop-color="#05070d"/>
    </radialGradient>
    <linearGradient id="water" x1="0" x2="1" y1="0" y2="1">
      <stop offset="0" stop-color="#ffd274"/>
      <stop offset="1" stop-color="#4ae2ff"/>
    </linearGradient>
  </defs>
  <rect width="512" height="512" rx="112" fill="url(#bg)"/>
  <rect x="58" y="60" width="396" height="396" rx="88" fill="none" stroke="#cc8f2e" stroke-width="18"/>
  <path d="M132 292h248c24 0 44 20 44 44v38c0 32-26 58-58 58H146c-32 0-58-26-58-58v-38c0-24 20-44 44-44Z" fill="#6d4a2b" stroke="#3a2416" stroke-width="18"/>
  <path d="M112 288c30-28 63-28 99 0 36 28 70 28 102 0 33-28 63-28 91 0v44H112v-44Z" fill="url(#water)" stroke="#cc8f2e" stroke-width="12"/>
  <circle cx="190" cy="232" r="38" fill="#ffc582" stroke="#5d3c2a" stroke-width="10"/>
  <rect x="154" y="194" width="72" height="18" rx="7" fill="#26252d"/>
  <circle cx="322" cy="232" r="38" fill="#ef9e59" stroke="#5d3c2a" stroke-width="10"/>
  <rect x="286" y="194" width="72" height="18" rx="7" fill="#8b3dd9"/>
  <path d="M178 246h24M310 246h24" stroke="#7f2f24" stroke-width="8" stroke-linecap="round"/>
  <path d="M180 126c-28 32 28 48 0 80M256 102c-32 36 32 56 0 100M332 126c-28 32 28 48 0 80" fill="none" stroke="#ffe3a6" stroke-width="15" stroke-linecap="round" opacity="0.78"/>
  <path d="M251 336l18 34 38 6-28 27 7 38-35-18-34 18 7-38-28-27 38-6 17-34Z" fill="#ff9af4" stroke="#ffe3a6" stroke-width="8"/>
</svg>
